<svg width="15" height="17" viewBox="0 0 15 17" fill="none" xmlns="http://www.w3.org/2000/svg">
<path d="M14.5625 7.84961C14.8542 8.34961 15 8.87044 15 9.41211C15 10.1204 14.7396 10.7454 14.2188 11.2871C13.6979 11.8288 13.0625 12.0996 12.3125 12.0996H11.1875C11.375 12.5788 11.4688 13.0579 11.4688 13.5371C11.4688 14.6413 11.1979 15.4642 10.6562 16.0059C10.1354 16.5475 9.40625 16.8184 8.46875 16.8184C7.90625 16.8184 7.46875 16.5684 7.15625 16.0684C6.86458 15.5892 6.65625 15.0475 6.53125 14.4434C6.40625 13.8392 6.3125 13.4954 6.25 13.4121C6.02083 13.1829 5.65625 12.7454 5.15625 12.0996C4.65625 11.4329 4.30208 11.0059 4.09375 10.8184H3.875C3.66667 11.1517 3.375 11.3184 3 11.3184H1C0.729167 11.3184 0.489583 11.2246 0.28125 11.0371C0.09375 10.8288 0 10.5892 0 10.3184V2.81836C0 2.54753 0.09375 2.31836 0.28125 2.13086C0.489583 1.92253 0.729167 1.81836 1 1.81836H3C3.25 1.81836 3.46875 1.90169 3.65625 2.06836H4C4.3125 2.06836 4.70833 1.96419 5.1875 1.75586C5.66667 1.54753 6.27083 1.33919 7 1.13086C7.75 0.922526 8.59375 0.818359 9.53125 0.818359C9.59375 0.818359 9.70833 0.818359 9.875 0.818359C10.0417 0.818359 10.1562 0.818359 10.2188 0.818359C11.3854 0.818359 12.2604 1.08919 12.8438 1.63086C13.4271 2.15169 13.7292 2.87044 13.75 3.78711C14.2083 4.43294 14.3854 5.13086 14.2812 5.88086C14.6146 6.50586 14.7083 7.16211 14.5625 7.84961ZM1.46875 9.84961C1.61458 9.99544 1.79167 10.0684 2 10.0684C2.20833 10.0684 2.38542 9.99544 2.53125 9.84961C2.67708 9.70378 2.75 9.52669 2.75 9.31836C2.75 9.11003 2.67708 8.93294 2.53125 8.78711C2.38542 8.64128 2.20833 8.56836 2 8.56836C1.79167 8.56836 1.61458 8.64128 1.46875 8.78711C1.32292 8.93294 1.25 9.11003 1.25 9.31836C1.25 9.52669 1.32292 9.70378 1.46875 9.84961ZM12.3125 10.5996C12.5208 10.5996 12.7188 10.5475 12.9062 10.4434C13.0938 10.3184 13.2396 10.1621 13.3438 9.97461C13.4479 9.78711 13.5 9.59961 13.5 9.41211C13.5 9.12044 13.4167 8.84961 13.25 8.59961C13.1042 8.34961 12.9583 8.22461 12.8125 8.22461C13.0417 8.01628 13.1458 7.70378 13.125 7.28711C13.125 6.84961 12.9688 6.47461 12.6562 6.16211C12.8229 5.82878 12.8542 5.48503 12.75 5.13086C12.6458 4.77669 12.4688 4.52669 12.2188 4.38086C12.4271 3.00586 11.8646 2.31836 10.5312 2.31836H9.375C8.58333 2.31836 7.61458 2.51628 6.46875 2.91211C5.34375 3.30794 4.52083 3.50586 4 3.50586V9.31836H4.34375C4.59375 9.31836 4.89583 9.50586 5.25 9.88086C5.60417 10.235 5.98958 10.6934 6.40625 11.2559C6.82292 11.8184 7.11458 12.1829 7.28125 12.3496C7.61458 12.6829 7.85417 13.2246 8 13.9746C8.14583 14.7038 8.30208 15.1517 8.46875 15.3184C8.82292 15.3184 9.10417 15.2663 9.3125 15.1621C9.54167 15.0579 9.69792 14.9017 9.78125 14.6934C9.86458 14.485 9.91667 14.3079 9.9375 14.1621C9.95833 14.0163 9.96875 13.8079 9.96875 13.5371C9.96875 13.1413 9.8125 12.6517 9.5 12.0684C9.20833 11.4642 9.0625 10.9746 9.0625 10.5996H12.3125Z" fill="#393939"/>
</svg>
