<svg width="305" height="286" viewBox="0 0 305 286" fill="none" xmlns="http://www.w3.org/2000/svg">
<path fill-rule="evenodd" clip-rule="evenodd" d="M139.384 66.3206C133.427 66.3206 128.081 69.6084 123.855 73.8071C116.583 81.0328 106.611 85.4901 95.6084 85.4901C73.3524 85.4901 55.3104 67.2517 55.3104 44.7534C55.3104 22.2552 73.3524 4.01675 95.6084 4.01675C106.611 4.01675 116.584 8.47436 123.856 15.7006C128.082 19.8995 133.428 23.1876 139.385 23.1876H164.034C169.991 23.1876 175.338 19.8995 179.563 15.7007C186.835 8.47463 196.808 4.01711 207.811 4.01711C230.067 4.01711 248.109 22.2555 248.109 44.7538C248.109 67.252 230.067 85.4905 207.811 85.4905C196.808 85.4905 186.836 81.0331 179.564 73.8072C175.338 69.6085 169.992 66.3206 164.035 66.3206H139.384Z" fill="#0893E1"/>
<path fill-rule="evenodd" clip-rule="evenodd" d="M139.385 262.813C133.428 262.813 128.082 266.101 123.856 270.3C116.584 277.526 106.612 281.983 95.6091 281.983C73.3531 281.983 55.3111 263.745 55.3111 241.246C55.3111 218.748 73.3531 200.51 95.6091 200.51C106.612 200.51 116.585 204.967 123.857 212.193C128.082 216.392 133.429 219.68 139.386 219.68H164.035C169.992 219.68 175.339 216.392 179.564 212.194C186.836 204.967 196.809 200.51 207.812 200.51C230.068 200.51 248.11 218.748 248.11 241.247C248.11 263.745 230.068 281.983 207.812 281.983C196.809 281.983 186.837 277.526 179.565 270.3C175.339 266.101 169.993 262.813 164.036 262.813H139.385Z" fill="#FFC001"/>
<path fill-rule="evenodd" clip-rule="evenodd" d="M40.298 184.537C51.3007 184.537 61.2735 180.079 68.5456 172.853C72.7713 168.655 78.1175 165.366 84.0746 165.366H108.724C114.681 165.366 120.027 168.655 124.253 172.853C131.525 180.08 141.498 184.537 152.5 184.537C163.503 184.537 173.476 180.08 180.748 172.853C184.974 168.655 190.32 165.366 196.277 165.366H220.925C226.882 165.366 232.229 168.655 236.454 172.853C243.726 180.08 253.699 184.537 264.702 184.537C286.958 184.537 305 166.299 305 143.8C305 121.302 286.958 103.064 264.702 103.064C253.699 103.064 243.727 107.521 236.455 114.747C232.229 118.946 226.883 122.233 220.926 122.233H196.276C190.319 122.233 184.973 118.946 180.748 114.747C173.475 107.521 163.503 103.064 152.5 103.064C141.498 103.064 131.525 107.521 124.253 114.747C120.028 118.946 114.681 122.233 108.725 122.233H84.0738C78.1169 122.233 72.7708 118.946 68.5452 114.747C61.2731 107.521 51.3005 103.064 40.298 103.064C18.042 103.064 0 121.302 0 143.8C0 166.299 18.042 184.537 40.298 184.537Z" fill="url(#paint0_linear_5_2)"/>
<path fill-rule="evenodd" clip-rule="evenodd" d="M196.277 165.212C190.32 165.212 184.974 168.5 180.748 172.699C173.476 179.925 163.503 184.382 152.501 184.382C141.498 184.382 131.525 179.925 124.253 172.699C120.027 168.5 114.681 165.212 108.724 165.212H84.075C78.1179 165.212 72.7716 168.5 68.546 172.699C61.2738 179.925 51.3009 184.383 40.298 184.383C18.0421 184.383 4.57764e-05 166.144 4.57764e-05 143.646C4.57764e-05 121.148 18.0421 102.909 40.298 102.909C51.3004 102.909 61.2729 107.367 68.5449 114.592C72.7705 118.791 78.1166 122.079 84.0734 122.079H108.725C114.682 122.079 120.028 118.791 124.253 114.592C131.525 107.366 141.498 102.909 152.501 102.909C163.503 102.909 173.476 107.366 180.748 114.592C184.973 118.791 190.319 122.079 196.276 122.079H220.926C226.883 122.079 232.229 118.791 236.455 114.592C243.727 107.366 253.7 102.909 264.702 102.909C286.958 102.909 305 121.147 305 143.646C305 166.144 286.958 184.382 264.702 184.382C253.699 184.382 243.726 179.925 236.454 172.699C232.229 168.5 226.882 165.212 220.925 165.212H196.277Z" fill="url(#paint1_linear_5_2)"/>
<mask id="mask0_5_2" style="mask-type:alpha" maskUnits="userSpaceOnUse" x="0" y="102" width="305" height="83">
<path fill-rule="evenodd" clip-rule="evenodd" d="M196.277 165.212C190.32 165.212 184.974 168.5 180.748 172.699C173.476 179.925 163.503 184.382 152.501 184.382C141.498 184.382 131.525 179.925 124.253 172.699C120.027 168.5 114.681 165.212 108.724 165.212H84.0748C78.1177 165.212 72.7715 168.5 68.5458 172.699C61.2737 179.925 51.3008 184.382 40.298 184.382C18.0421 184.382 5.34058e-05 166.144 5.34058e-05 143.646C5.34058e-05 121.147 18.0421 102.909 40.298 102.909C51.3004 102.909 61.273 107.366 68.5451 114.592C72.7706 118.791 78.1168 122.079 84.0736 122.079H108.725C114.682 122.079 120.028 118.791 124.253 114.592C131.525 107.366 141.498 102.909 152.501 102.909C163.503 102.909 173.476 107.366 180.748 114.592C184.973 118.791 190.319 122.079 196.276 122.079H220.926C226.883 122.079 232.229 118.791 236.455 114.592C243.727 107.366 253.7 102.909 264.702 102.909C286.958 102.909 305 121.147 305 143.646C305 166.144 286.958 184.382 264.702 184.382C253.699 184.382 243.726 179.925 236.454 172.699C232.229 168.5 226.882 165.212 220.925 165.212H196.277Z" fill="url(#paint2_linear_5_2)"/>
</mask>
<g mask="url(#mask0_5_2)">
<path d="M-7.93153 84.1998H304.059V140.328C304.059 140.328 282.907 151.019 150.708 151.019C18.5083 151.019 -7.93153 140.328 -7.93153 140.328V84.1998Z" fill="#0893E1"/>
</g>
<defs>
<linearGradient id="paint0_linear_5_2" x1="-8.84057" y1="103.064" x2="320.094" y2="184.273" gradientUnits="userSpaceOnUse">
<stop stop-color="#FFD000"/>
<stop offset="1" stop-color="#FFBC00"/>
</linearGradient>
<linearGradient id="paint1_linear_5_2" x1="-8.84054" y1="102.909" x2="320.094" y2="184.118" gradientUnits="userSpaceOnUse">
<stop stop-color="#FFD000"/>
<stop offset="1" stop-color="#FFBC00"/>
</linearGradient>
<linearGradient id="paint2_linear_5_2" x1="-8.84053" y1="102.909" x2="320.094" y2="184.118" gradientUnits="userSpaceOnUse">
<stop stop-color="#FFD000"/>
<stop offset="1" stop-color="#FFBC00"/>
</linearGradient>
</defs>
</svg>
