<svg width="21" height="22" viewBox="0 0 21 22" fill="none" xmlns="http://www.w3.org/2000/svg">
<path d="M13.5146 10.7542L20.0977 17.3987C20.5898 17.8499 20.5898 18.301 20.0977 18.7522L18.5596 20.2903C18.1084 20.7825 17.6572 20.7825 17.2061 20.2903L10.5615 13.7073L3.91699 20.2903C3.46582 20.7825 3.01465 20.7825 2.56348 20.2903L1.02539 18.7522C0.533203 18.301 0.533203 17.8499 1.02539 17.3987L7.6084 10.7542L1.02539 4.10962C0.533203 3.65845 0.533203 3.20728 1.02539 2.7561L2.56348 1.21802C3.01465 0.72583 3.46582 0.72583 3.91699 1.21802L10.5615 7.80103L17.2061 1.21802C17.6572 0.72583 18.1084 0.72583 18.5596 1.21802L20.0977 2.7561C20.5898 3.20728 20.5898 3.65845 20.0977 4.10962L13.5146 10.7542Z" fill="#000000"/>
</svg>
