<svg width="29" height="29" viewBox="0 0 29 29" fill="none" xmlns="http://www.w3.org/2000/svg">
<path d="M4.57812 4.71289C7.33464 1.95638 10.6576 0.578125 14.5469 0.578125C18.4362 0.578125 21.7402 1.95638 24.459 4.71289C27.2155 7.43164 28.5938 10.7357 28.5938 14.625C28.5938 18.5143 27.2155 21.8372 24.459 24.5938C21.7402 27.3125 18.4362 28.6719 14.5469 28.6719C10.6576 28.6719 7.33464 27.3125 4.57812 24.5938C1.85938 21.8372 0.5 18.5143 0.5 14.625C0.5 10.7357 1.85938 7.43164 4.57812 4.71289ZM18.0586 7.48828C17.0768 6.50651 15.9062 6.01562 14.5469 6.01562C13.1875 6.01562 12.0169 6.50651 11.0352 7.48828C10.0534 8.47005 9.5625 9.64062 9.5625 11C9.5625 12.3594 10.0534 13.5299 11.0352 14.5117C12.0169 15.4935 13.1875 15.9844 14.5469 15.9844C15.9062 15.9844 17.0768 15.4935 18.0586 14.5117C19.0404 13.5299 19.5312 12.3594 19.5312 11C19.5312 9.64062 19.0404 8.47005 18.0586 7.48828ZM6.27734 21.6484C8.42969 24.2161 11.1862 25.5 14.5469 25.5C17.9076 25.5 20.6641 24.2161 22.8164 21.6484C22.2878 20.6289 21.5326 19.8171 20.5508 19.2129C19.569 18.571 18.474 18.25 17.2656 18.25C17.1523 18.25 17.0202 18.2689 16.8691 18.3066C16.0762 18.571 15.3021 18.7031 14.5469 18.7031C13.7917 18.7031 13.0176 18.571 12.2246 18.3066C12.0736 18.2689 11.9414 18.25 11.8281 18.25C10.6198 18.25 9.52474 18.571 8.54297 19.2129C7.5612 19.8171 6.80599 20.6289 6.27734 21.6484Z" fill="#ffffff"/>
</svg>
