<?xml version="1.0" encoding="utf-8"?>
<!-- Generator: Adobe Illustrator 26.3.1, SVG Export Plug-In . SVG Version: 6.00 Build 0)  -->
<svg version="1.1" id="Layer_1" xmlns="http://www.w3.org/2000/svg" xmlns:xlink="http://www.w3.org/1999/xlink" x="0px" y="0px"
	 viewBox="0 0 563.74 92.34" style="enable-background:new 0 0 563.74 92.34;" xml:space="preserve">
<style type="text/css">
	.st0{fill:#000000;}
</style>
<g>
	
		<rect x="180.62" y="2.41" transform="matrix(0.8114 0.5844 -0.5844 0.8114 36.2201 -106.1951)" class="st0" width="4.12" height="1.25"/>
	<path class="st0" d="M69.22,89.78c-2.06-15.31-4.11-30.63-6.17-45.94c-0.3,0.55-0.59,1.09-0.89,1.64
		c-7.35,14.85-14.7,29.7-22.5,45.46c-0.66-1.26-1.52-2.92-2.53-4.85C28.01,68.52,24.93,61.72,18.23,49.8
		c-0.74-1.31-1.67-2.96-2.77-4.87c-2.07,14.91-4.14,29.82-6.2,44.74c-1.8,0-3.73,0-5.98,0c3.15-21.28,6.3-42.56,9.45-63.84
		c0.18,0.32,0.35,0.64,0.53,0.96c8.89,17.05,17.02,34.49,26.09,52.14c8.64-17.55,17.11-34.77,25.58-51.98
		c0.2-0.39,0.41-0.78,0.61-1.17c1.76,10.71,3.48,21.54,5.15,32.48c1.62,10.59,3.16,21.1,4.64,31.51
		C73.22,89.78,71.41,89.78,69.22,89.78z"/>
	<path class="st0" d="M30.86,43.06"/>
	<path class="st0" d="M479.64,26.66c1.88-0.1,4.74-0.19,8.22-0.09c9.81,0.27,14.8,0.47,18.85,3.84c3.26,2.72,4.51,6.27,4.8,7.15
		c2.09,6.29,0.12,11.5-4.74,15.8c-0.58,0.51-1.19,0.98-2.13,1.75c0.93,0.54,1.62,0.99,2.35,1.35c7.98,3.86,11.23,9.71,10.16,18.33
		c-0.83,6.65-6.69,13.02-14.02,14.31c-4.7,0.83-9.58,0.72-14.38,0.91c-2.94,0.12-5.89,0.02-9.11,0.02
		C479.64,68.9,479.64,47.78,479.64,26.66z M485.41,83.06c5.33,0,10.51,0.56,15.51-0.14c6.22-0.88,9.8-5.51,9.84-11.1
		c0.04-5.51-3.55-10.32-9.56-11.45c-5.1-0.97-10.38-0.96-15.79-1.4C485.41,67.44,485.41,75.14,485.41,83.06z M485.39,52.63
		c3.56,0,6.66,0.08,9.76-0.04c1.21-0.05,2.44-0.45,3.61-0.86c4.26-1.51,7.24-5.74,7.05-9.91c-0.11-2.37-1.2-4.08-1.5-4.51
		c-1.46-2.12-3.5-2.95-4.64-3.4c-1.14-0.45-2.34-0.72-7.16-0.78c-1.77-0.02-4.18-0.02-7.06,0.09
		C485.42,39.69,485.4,46.16,485.39,52.63z"/>
	<path class="st0" d="M267.74,33.24c0,6.6,0,12.75,0,19.44c9.77,0,19.65,0,29.69,0c0,2.34,0,4.17,0,6.35c-9.66,0-19.42,0-29.52,0
		c0,8.17,0,15.99,0,24.34c9.6,0,19.48,0,29.52,0c0,2.34,0,4.17,0,6.32c-11.81,0-23.71,0-35.8,0c0-20.91,0-41.76,0-62.76
		c12.05,0,23.87,0,35.96,0c0,2.01,0,3.93,0,6.3C287.73,33.24,277.81,33.24,267.74,33.24z"/>
	<path class="st0" d="M144.45,89.9c-2.41,0-4.42,0-6.68,0c-3.2-6.62-6.41-13.25-9.85-20.35c-4.46,0-9.11,0-13.75,0
		c-4.68,0-9.36,0-14.3,0c-3.27,6.79-6.53,13.56-9.8,20.35c-2.16,0-4.17,0-6.89,0c10.18-21.33,20.18-42.3,30.19-63.26
		c0.1-0.21,0.19-0.42,0.29-0.63C123.93,47.31,134.19,68.61,144.45,89.9z M114,39.92c-3.88,8.12-7.34,15.38-10.91,22.85
		c7.49,0,14.48,0,21.78,0C121.29,55.24,117.87,48.06,114,39.92z"/>
	<path class="st0" d="M467.88,89.95c-2.12,0-4.25,0-6.37,0c-3.24-6.69-6.47-13.38-9.71-20.08c-9.13,0-18.44,0-28.35,0
		c-3.06,6.35-6.32,13.1-9.63,19.95c-2.15,0-4.26,0-6.89,0c10.24-21.09,20.47-42.18,30.71-63.27c4.44,9.26,8.87,18.52,13.29,27.79
		C456.58,66.21,462.23,78.07,467.88,89.95z M437.69,39.89c-3.92,8.26-7.35,15.5-10.92,23.03c7.57,0,14.52,0,21.85,0
		C445.03,55.34,441.56,48.03,437.69,39.89z"/>
	<path class="st0" d="M216.03,50.15c8.23-7.73,16.46-15.47,24.79-23.29c2.4,0,4.9,0,8.37,0c-10.44,9.84-20.39,19.21-30.55,28.77
		c10.94,11.35,21.69,22.51,32.82,34.05c-2.92,0-5.42,0-8.31,0c-8.84-9.12-17.96-18.53-27.08-27.94c-0.34-0.32-0.67-0.64-1.01-0.96
		c0.02,9.69,0.05,19.37,0.07,29.06c-2.28,0-4.1,0-6.2,0c0-21.05,0-42.09,0-63.14c1.97-0.01,3.94-0.02,5.91-0.03
		c0.03,8.19,0.06,16.38,0.09,24.57C215.3,50.89,215.67,50.52,216.03,50.15z"/>
	<path class="st0" d="M164.77,61.29c-1.17,0-2.24,0-3.71,0c0,9.46,0,18.83,0,28.46c-2.18,0-3.97,0-6.01,0
		c0.08-11.64,0.15-23.28,0.23-34.92c1.96,0.07,5.05,0.18,8.9,0.3c4.96,0.16,6.5,0.21,8.84,0.06c5.12-0.32,7.23-1.13,8.1-1.5
		c1.67-0.71,3.38-1.41,4.79-3.19c1.47-1.86,2.16-4.29,2.05-7.15c-0.18-4.7-2.8-8.12-7.54-9.3c-2.53-0.63-5.2-0.75-8.14-1.14
		c1.17-1.93,2.32-3.85,3.45-5.71c13.44,1.53,19.19,6.86,18.8,17.52c-0.34,9.23-5.77,15.97-21.83,16.61
		c7.63,9.61,15.02,18.92,22.69,28.59c-2.91,0-5.2,0-7.71,0C180.15,80.5,172.6,71.06,164.77,61.29z"/>
	<path class="st0" d="M522.71,77.84c2.41-1.49,3.84-2.37,5.41-3.34c1.59,2.2,3,4.4,4.68,6.39c2.9,3.42,6.62,5.18,11.2,4.42
		c6.9-1.15,13.63-9.06,7.23-17.16c-3.12-3.96-7.39-7.04-11.23-10.43c-2.67-2.36-5.7-4.37-8.19-6.9c-5.14-5.23-6.05-12.32-2.64-17.82
		c3.57-5.75,10.4-8.18,17.43-6.6c5.33,1.19,9.12,4.38,12.61,8.49c-1.62,1.23-3.22,2.45-4.93,3.76c-1.22-1.29-2.2-2.74-3.54-3.66
		c-2.01-1.38-4.15-2.89-6.45-3.44c-4.11-0.98-7.92,0.87-9.68,3.98c-1.69,2.99-1.35,7.48,1.42,10.35c2.68,2.77,5.88,5.04,8.85,7.52
		c3.21,2.69,6.64,5.17,9.6,8.12c7.45,7.42,7.94,16.59,1.47,23.53c-6.17,6.62-16.9,8.48-25.3,1.77
		C527.71,84.46,525.56,81.12,522.71,77.84z"/>
	<path class="st0" d="M317.41,33.21c-5.15,0-9.63,0-14.27,0c0-2.13,0-3.94,0-6.1c11.35,0,22.8,0,34.51,0c0,1.79,0,3.71,0,6.12
		c-4.52,0-9.11,0-14.06,0c0,19.12,0,37.78,0,56.61c-2.19,0-4,0-6.18,0C317.41,71.18,317.41,52.52,317.41,33.21z"/>
	<path class="st0" d="M372.2,26.93c2.06,0,3.87,0,6.03,0c0,18.81,0,37.47,0,56.45c8.22,0,16.11,0,24.31,0c0,2.23,0,4.15,0,6.36
		c-9.89,0-19.97,0-30.34,0C372.2,69,372.2,48.19,372.2,26.93z"/>
	<path class="st0" d="M163.18,37.26l-4.07-2.88c-1.16-0.82-1.46-2.43-0.68-3.63L175.8,4.01c0.8-1.24,2.52-1.59,3.75-0.72l4.12,2.89
		c1.17,0.82,1.48,2.42,0.7,3.62l-17.43,26.75C166.11,37.8,164.41,38.13,163.18,37.26z"/>
	<path class="st0" d="M168.94,49.36c0,1.11,0,2.01,0,3.19c-8.53,0-17.05,0-25.96,0c-0.06-0.9-0.13-1.91-0.21-3.19
		C151.41,49.36,159.94,49.36,168.94,49.36z"/>
</g>
</svg>
